# xmcd CD database file
#
# Track frame offsets:
#	150
#	14742
#	40448
#	53479
#	77580
#	102113
#	117891
#	132974
#	145721
#	163305
#	180167
#	197427
#	207877
#	233205
#	248410
#	259514
#	280030
#
# Disc length: 4002 seconds
#
# Revision: 0
# Processed by: cddbd v1.5.1PL0 Copyright (c) Steve Scherf et al.
# Submitted via: CDex 1.51
#
DISCID=da0fa011
DTITLE=Ray Perez - Centenario de salsa
DYEAR=1900
DGENRE=Salsa
TTITLE0=Pa'l 23
TTITLE1=Desgarga cuatricentenaria
TTITLE2=Asì mueren los valientes
TTITLE3=Emae emae
TTITLE4=Son montuno
TTITLE5=Rompelo
TTITLE6=Ronda del guaguanco
TTITLE7=Hoculele I
TTITLE8=Brujeria
TTITLE9=Pa' Puerto Rico
TTITLE10=Santa
TTITLE11=Pa'la cola
TTITLE12=Al tri gueno
TTITLE13=No salgas de tu barrio
TTITLE14=Hoculele II
TTITLE15=Guaguanco en New York
TTITLE16=El Alacràn
EXTD=
EXTT0=
EXTT1=
EXTT2=
EXTT3=
EXTT4=
EXTT5=
EXTT6=
EXTT7=
EXTT8=
EXTT9=
EXTT10=
EXTT11=
EXTT12=
EXTT13=
EXTT14=
EXTT15=
EXTT16=
PLAYORDER=
